<svg xmlns="http://www.w3.org/2000/svg" width="35" height="43" viewBox="0 0 35 43" fill="currentColor"><path d="M24.3514 33.0038H10.4009C9.48913 33.0038 8.75 32.2612 8.75 31.3451C8.75 30.4289 9.48913 29.6863 10.4009 29.6863H24.3514C25.2632 29.6863 26.0024 30.4289 26.0024 31.3451C26.0024 32.2612 25.2632 33.0038 24.3514 33.0038ZM26.0024 24.9588C26.0024 24.0427 25.2632 23.3 24.3514 23.3H21.1321C20.2203 23.3 19.4811 24.0427 19.4811 24.9588C19.4811 25.8749 20.2203 26.6176 21.1321 26.6176H24.3514C25.2632 26.6176 26.0024 25.8749 26.0024 24.9588ZM35 32.755V10.1958C35 4.7079 30.5563 0.243164 25.0943 0.243164H9.90566C4.44368 0.243164 0 4.7079 0 10.1958V32.755C0 38.2429 4.44368 42.7076 9.90566 42.7076H25.0943C30.5563 42.7076 35 38.2429 35 32.755ZM25.0943 3.5607C28.7357 3.5607 31.6981 6.53719 31.6981 10.1958V32.755C31.6981 36.4136 28.7357 39.3901 25.0943 39.3901H9.90566C6.26434 39.3901 3.30189 36.4136 3.30189 32.755V10.1958C3.30189 6.53719 6.26434 3.5607 9.90566 3.5607H25.0943ZM26.4151 8.37113C26.4151 7.45499 25.676 6.71236 24.7642 6.71236C23.8523 6.71236 23.1132 7.45499 23.1132 8.37113C23.1132 9.74309 22.0023 10.8593 20.6368 10.8593H14.3632C12.9977 10.8593 11.8868 9.74309 11.8868 8.37113C11.8868 7.45499 11.1477 6.71236 10.2358 6.71236C9.32403 6.71236 8.58491 7.45499 8.58491 8.37113C8.58491 11.5724 11.1771 14.1768 14.3632 14.1768H20.6368C23.8229 14.1768 26.4151 11.5724 26.4151 8.37113ZM15.0071 25.6242L18.1771 22.4117C18.819 21.7611 18.8146 20.7109 18.167 20.0659C17.5196 19.4209 16.4743 19.4253 15.8322 20.076L12.6622 23.2885C12.6471 23.3038 12.6283 23.3037 12.6133 23.2885L11.0779 21.7325C10.4359 21.0819 9.39065 21.0774 8.74315 21.7224C8.09565 22.3674 8.09119 23.4176 8.73308 24.0682L10.2685 25.6242C10.9005 26.2648 11.7419 26.6176 12.6377 26.6176C13.5337 26.6176 14.3751 26.2648 15.0071 25.6242Z" fill="currentColor"></path></svg>