<svg xmlns="http://www.w3.org/2000/svg" width="35" height="43" viewBox="0 0 35 43" fill="currentColor"><path d="M25.0943 42.7076H9.90566C4.44368 42.7076 0 38.2429 0 32.755V10.1958C0 4.7079 4.44368 0.243164 9.90566 0.243164H25.0943C30.5563 0.243164 35 4.7079 35 10.1958V32.755C35 38.2429 30.5563 42.7076 25.0943 42.7076ZM9.90566 3.5607C6.26434 3.5607 3.30189 6.53719 3.30189 10.1958V32.755C3.30189 36.4136 6.26434 39.3901 9.90566 39.3901H25.0943C28.7357 39.3901 31.6981 36.4136 31.6981 32.755V10.1958C31.6981 6.53719 28.7357 3.5607 25.0943 3.5607H9.90566ZM25.7547 31.6676C25.7547 27.4196 22.3028 23.9635 18.0597 23.9635H16.9403C12.6972 23.9635 9.24528 27.4196 9.24528 31.6676C9.24528 32.5837 9.98441 33.3264 10.8962 33.3264C11.808 33.3264 12.5472 32.5837 12.5472 31.6676C12.5472 29.2489 14.518 27.2811 16.9403 27.2811H18.0597C20.4821 27.2811 22.4528 29.2489 22.4528 31.6676C22.4528 32.5837 23.192 33.3264 24.1038 33.3264C25.0156 33.3264 25.7547 32.5837 25.7547 31.6676ZM17.6651 21.2266C14.3879 21.2266 11.7217 18.5477 11.7217 15.255C11.7217 11.9623 14.3879 9.28345 17.6651 9.28345C20.9423 9.28345 23.6085 11.9623 23.6085 15.255C23.6085 18.5477 20.9423 21.2266 17.6651 21.2266ZM17.6651 12.601C16.2085 12.601 15.0236 13.7916 15.0236 15.255C15.0236 16.7185 16.2085 17.909 17.6651 17.909C19.1216 17.909 20.3066 16.7185 20.3066 15.255C20.3066 13.7916 19.1216 12.601 17.6651 12.601Z" fill="currentColor"></path></svg>