<svg xmlns="http://www.w3.org/2000/svg" width="40" height="41" viewBox="0 0 40 41" fill="currentColor"><path d="M20.0261 22.4306C21.1048 22.4306 21.9792 21.5562 21.9792 20.4775C21.9792 19.3988 21.1048 18.5244 20.0261 18.5244C18.9474 18.5244 18.073 19.3988 18.073 20.4775C18.073 21.5562 18.9474 22.4306 20.0261 22.4306Z" fill="currentColor"></path><path d="M28.4374 21.1806C24.345 21.1806 21.0156 24.51 21.0156 28.6024C21.0156 32.6949 24.345 36.0243 28.4374 36.0243C32.5298 36.0243 35.8593 32.6949 35.8593 28.6024C35.8593 24.51 32.5298 21.1806 28.4374 21.1806ZM28.4374 32.8993C26.0681 32.8993 24.1405 30.9717 24.1405 28.6024C24.1405 26.2332 26.0681 24.3056 28.4374 24.3056C30.8067 24.3056 32.7343 26.2332 32.7343 28.6024C32.7343 30.9717 30.8067 32.8993 28.4374 32.8993Z" fill="currentColor"></path><path d="M14.1406 7.19627C15.0035 7.19627 15.7031 6.49674 15.7031 5.63377C15.7031 4.38456 16.7194 3.36815 17.9687 3.36815H22.0312C23.2805 3.36815 24.2968 4.38456 24.2968 5.63377C24.2968 6.49674 24.9963 7.19627 25.8593 7.19627C26.7223 7.19627 27.4218 6.49674 27.4218 5.63377C27.4218 2.66136 25.0036 0.243164 22.0312 0.243164H17.9687C14.9963 0.243164 12.5781 2.66136 12.5781 5.63377C12.5781 6.49674 13.2776 7.19627 14.1406 7.19627Z" fill="currentColor"></path><path d="M10.8593 21.1806C10.8593 20.3176 10.1598 19.6181 9.29685 19.6181C8.43388 19.6181 7.73435 20.3176 7.73435 21.1806C7.73435 25.8761 11.5544 29.6962 16.2499 29.6962C17.1129 29.6962 17.8124 28.9967 17.8124 28.1337C17.8124 27.2707 17.1129 26.5712 16.2499 26.5712C13.2775 26.5712 10.8593 24.153 10.8593 21.1806Z" fill="currentColor"></path><path d="M30.6249 10.2431H9.37497C4.20561 10.2431 0 14.4487 0 19.6181V30.8681C0 36.0374 4.20561 40.243 9.37497 40.243H22.0312C22.8941 40.243 23.5937 39.5435 23.5937 38.6805C23.5937 37.8176 22.8941 37.118 22.0312 37.118H9.37497C5.92873 37.118 3.12499 34.3143 3.12499 30.8681V19.6181C3.12499 16.1719 5.92873 13.3681 9.37497 13.3681H30.6249C34.0711 13.3681 36.8749 16.1719 36.8749 19.6181V21.7275C36.8749 22.5904 37.5744 23.29 38.4374 23.29C39.3003 23.29 39.9999 22.5904 39.9999 21.7275V19.6181C39.9999 14.4487 35.7943 10.2431 30.6249 10.2431Z" fill="currentColor"></path><path d="M37.3548 35.3881C36.7446 34.7779 35.7553 34.7779 35.1452 35.3881C34.535 35.9983 34.5349 36.9877 35.1452 37.5978L37.3326 39.7853C37.6377 40.0905 38.0376 40.243 38.4375 40.243C38.8374 40.243 39.2373 40.0905 39.5423 39.7854C40.1526 39.1752 40.1526 38.1858 39.5423 37.5757L37.3548 35.3881Z" fill="currentColor"></path></svg>