<svg xmlns="http://www.w3.org/2000/svg" width="40" height="40" viewBox="0 0 40 40" fill="currentColor"><path d="M32.539 23.1259C31.1363 21.51 29.1978 20.4537 27.0798 20.1509L22.2175 19.3884V10.903C22.2175 8.88791 20.578 7.24854 18.563 7.24854H18.5083C16.4933 7.24854 14.8538 8.88791 14.8538 10.903V24.5304L9.82713 22.3761C8.81746 21.9435 7.66656 22.0459 6.7491 22.651C5.83177 23.2558 5.28418 24.2731 5.28418 25.3718V25.4177C5.28418 26.3475 5.68272 27.2353 6.3776 27.8531L14.8539 35.3904V39.0523C14.8539 39.5757 15.2779 39.9997 15.8013 39.9997C16.3246 39.9997 16.7487 39.5757 16.7487 39.0523V34.9651C16.7487 34.6945 16.633 34.4369 16.4307 34.2572L7.63662 26.4373C7.34571 26.1786 7.17897 25.8071 7.17897 25.4178V25.3719C7.17897 24.9052 7.40255 24.49 7.79212 24.2329C8.18207 23.9759 8.65198 23.934 9.08071 24.1178L15.427 26.8377C15.4853 26.8629 15.5467 26.8826 15.6105 26.8956C15.7054 26.9152 15.8011 26.9195 15.8947 26.91C15.9054 26.909 15.9157 26.907 15.9262 26.9056C15.9458 26.9029 15.9655 26.9004 15.9848 26.8966C16.0017 26.8933 16.0183 26.8887 16.0348 26.8845C16.0475 26.8812 16.0601 26.8785 16.0726 26.8748C16.0914 26.8692 16.1097 26.8624 16.1281 26.8556C16.1382 26.8519 16.1485 26.8485 16.1585 26.8444C16.1764 26.8371 16.1939 26.8288 16.2112 26.8204C16.2214 26.8155 16.2319 26.811 16.2419 26.8057C16.2574 26.7974 16.2723 26.7884 16.2874 26.7794C16.2988 26.7724 16.3106 26.7659 16.3218 26.7584C16.3345 26.7501 16.3463 26.741 16.3586 26.7321C16.3715 26.7227 16.3845 26.7136 16.397 26.7035C16.407 26.6954 16.4163 26.6865 16.426 26.6781C16.4394 26.6662 16.4531 26.6545 16.4658 26.6418C16.4744 26.6334 16.4824 26.6243 16.4906 26.6156C16.5032 26.6022 16.5159 26.589 16.5276 26.5747C16.5367 26.5639 16.5448 26.5524 16.5534 26.5413C16.5632 26.5284 16.5732 26.5159 16.5824 26.5025C16.5941 26.4854 16.6045 26.4678 16.615 26.4499C16.6201 26.4415 16.6255 26.4335 16.6303 26.4249C16.6758 26.3426 16.7096 26.2529 16.7291 26.1579C16.7422 26.0944 16.7483 26.0303 16.7483 25.9669V10.903C16.7483 9.93269 17.5377 9.14332 18.508 9.14332H18.5627C19.5331 9.14332 20.3225 9.93269 20.3225 10.903V20.0011C20.3225 20.0361 20.3248 20.0707 20.3284 20.1047C20.2784 20.6015 20.6239 21.0565 21.1231 21.1347L26.7923 22.0236C26.7969 22.0244 26.8013 22.025 26.8058 22.0257C30.2352 22.513 32.8213 25.4924 32.8213 28.9564V29.0531C32.8213 30.6561 32.4301 32.2552 31.69 33.6772L29.12 38.6147C28.8784 39.079 29.0589 39.6509 29.5228 39.8925C29.6625 39.9652 29.8121 39.9998 29.9595 39.9998C30.3015 39.9998 30.6318 39.8139 30.8006 39.4896L33.3705 34.5521C34.2508 32.8609 34.716 30.9595 34.716 29.0531V28.9564C34.7163 26.8144 33.943 24.7438 32.539 23.1259Z"></path><path d="M18.5358 4.7736C19.0591 4.7736 19.4832 4.34955 19.4832 3.82621V0.947394C19.4832 0.424054 19.0591 0 18.5358 0C18.0124 0 17.5884 0.424054 17.5884 0.947394V3.82621C17.5884 4.34955 18.0126 4.7736 18.5358 4.7736Z"></path><path d="M24.4038 12.4926C24.4038 13.0159 24.8279 13.44 25.3512 13.44H28.23C28.7534 13.44 29.1774 13.0159 29.1774 12.4926C29.1774 11.9692 28.7534 11.5452 28.23 11.5452H25.3512C24.828 11.5452 24.4038 11.9693 24.4038 12.4926Z"></path><path d="M24.6003 7.13293C24.8427 7.13293 25.0853 7.04047 25.2703 6.85554L27.306 4.8199C27.6759 4.44979 27.6759 3.85002 27.306 3.48003C26.9358 3.11017 26.3361 3.11017 25.9661 3.48003L23.9303 5.51554C23.5603 5.88566 23.5603 6.48542 23.9303 6.85541C24.1154 7.04034 24.3579 7.13293 24.6003 7.13293Z"></path><path d="M11.0558 6.85541C11.2409 7.04035 11.4834 7.13281 11.7258 7.13281C11.9682 7.13281 12.2107 7.04035 12.3958 6.85541C12.7658 6.4853 12.7658 5.88554 12.3958 5.51555L10.36 3.47991C9.98992 3.11005 9.39016 3.11005 9.02017 3.47991C8.65018 3.85003 8.65018 4.44979 9.02017 4.81978L11.0558 6.85541Z"></path><path d="M8.13782 13.44H11.0166C11.54 13.44 11.964 13.0159 11.964 12.4926C11.964 11.9692 11.54 11.5452 11.0166 11.5452H8.13782C7.61448 11.5452 7.19043 11.9692 7.19043 12.4926C7.19043 13.0159 7.61448 13.44 8.13782 13.44Z"></path></svg>