<svg xmlns="http://www.w3.org/2000/svg" width="60" height="61" viewBox="0 0 60 61" fill="none"><circle opacity="0.2" cx="30" cy="30.2263" r="30" fill="#24DBDB"></circle><g clip-path="url(#clip0_130_391)"><path d="M25.6756 33.3826V22.0284C25.6756 21.3392 25.1149 20.7784 24.4256 20.7784H21.7173C21.028 20.7784 20.4673 21.3392 20.4673 22.0284V22.9021C20.4673 23.1322 20.6538 23.3188 20.884 23.3188C21.1141 23.3188 21.3006 23.1322 21.3006 22.9021V22.0284C21.3006 21.7987 21.4875 21.6118 21.7173 21.6118H24.4256C24.6554 21.6118 24.8423 21.7987 24.8423 22.0284V29.8409H22.6833C22.4532 29.8409 22.2667 30.0275 22.2667 30.2576C22.2667 30.4877 22.4532 30.6743 22.6833 30.6743H24.8423V33.3826C24.8423 33.6124 24.6554 33.7993 24.4256 33.7993H21.7173C21.4875 33.7993 21.3006 33.6124 21.3006 33.3826V25.5701H23.3873C23.6174 25.5701 23.804 25.3835 23.804 25.1534C23.804 24.9233 23.6174 24.7368 23.3873 24.7368H20.884C20.6538 24.7368 20.4673 24.9233 20.4673 25.1534V33.3826C20.4673 34.0719 21.028 34.6326 21.7173 34.6326H24.4256C25.1148 34.6326 25.6756 34.0719 25.6756 33.3826Z" fill="#008181"></path><path d="M42.6075 32.4918L39.8482 26.768C39.4492 25.9402 38.4509 25.5914 37.6232 25.9904L36.6025 26.4825L37.2209 25.5331C37.7236 24.7613 37.506 23.7297 36.734 23.2269L31.4096 19.7589C30.6397 19.2575 29.605 19.4758 29.1034 20.2459L28.8499 20.6352C28.7243 20.828 28.7788 21.0862 28.9717 21.2118C29.1645 21.3374 29.4226 21.2829 29.5482 21.09L29.8017 20.7007C30.0524 20.3157 30.5697 20.2064 30.9548 20.4572L36.2793 23.9251C36.6652 24.1765 36.7741 24.6922 36.5227 25.0781L35.153 27.1812C26.7835 31.2158 27.3038 30.9609 27.2558 30.9954C27.1688 31.0577 27.1072 31.1531 27.0883 31.2619C27.0781 31.3202 27.0817 30.8488 27.0817 38.3825C27.0817 40.5939 25.2826 42.3929 23.0713 42.3929C20.8599 42.3929 19.0609 40.5939 19.0609 38.3825V19.893C19.0609 19.4335 19.4347 19.0597 19.8942 19.0597H26.2484C26.7079 19.0597 27.0817 19.4335 27.0817 19.893V28.5741C27.0817 28.8042 27.2683 28.9907 27.4984 28.9907C27.7285 28.9907 27.915 28.8042 27.915 28.5741V27.7011L28.5801 26.68L30.0639 27.6465C30.1342 27.6922 30.213 27.714 30.291 27.714C30.7047 27.714 30.8652 27.1738 30.5188 26.9481L29.0349 25.9817L30.5131 23.7123C30.6385 23.5197 30.8962 23.4645 31.0896 23.5905L33.3589 25.0687C33.552 25.1943 33.6064 25.4522 33.4807 25.6452L32.9627 26.4406C32.8371 26.6334 32.8916 26.8915 33.0844 27.0172C33.2772 27.1428 33.5354 27.0882 33.6609 26.8954L34.1789 26.1C34.556 25.5211 34.3927 24.7474 33.8137 24.3704L31.5444 22.8923C30.9656 22.5153 30.1919 22.6786 29.8147 23.2575L27.915 26.1741V19.893C27.915 18.974 27.1674 18.2263 26.2484 18.2263H19.8942C18.9752 18.2263 18.2275 18.974 18.2275 19.893V38.3826C18.2275 41.0534 20.4005 43.2263 23.0713 43.2263C25.6512 43.2263 27.7663 41.1988 27.9073 38.6535C28.1842 38.7114 28.462 38.6749 28.7061 38.5571L38.9339 33.6267C39.5562 33.3267 39.8172 32.5803 39.5171 31.9579L38.341 29.5182C38.0417 28.8973 37.293 28.6358 36.6722 28.935L29.2594 32.5085C29.0521 32.6083 28.9651 32.8574 29.065 33.0647L30.2027 35.4248C30.3027 35.6321 30.5517 35.7191 30.759 35.6192C30.9663 35.5193 31.0533 35.2702 30.9534 35.0629L29.9967 33.0781L37.034 29.6856C37.2411 29.5859 37.4906 29.6731 37.5904 29.88L38.7664 32.3197C38.8664 32.5272 38.7795 32.776 38.5721 32.876L36.1324 34.052L35.3028 32.3312C35.2029 32.1239 34.9537 32.0368 34.7465 32.1368C34.5393 32.2367 34.4522 32.4857 34.5522 32.693L35.3817 34.4139L28.3442 37.8065C28.2021 37.875 28.0366 37.8557 27.915 37.7657V31.5955L37.9851 26.7411C38.399 26.5415 38.8981 26.716 39.0976 27.1299L41.8569 32.8537C42.0564 33.2676 41.882 33.7667 41.4681 33.9662L30.2093 39.3937C30.002 39.4936 29.9149 39.7427 30.0149 39.95C30.0867 40.0989 30.2355 40.1858 30.3905 40.1858C30.5378 40.1858 29.7985 40.5169 41.8299 34.7169C42.6577 34.3178 43.0065 33.3196 42.6075 32.4918Z" fill="#008181"></path><path d="M23.071 39.5284C22.4391 39.5284 21.9251 39.0144 21.9251 38.3826C21.9251 38.1525 21.7386 37.9659 21.5085 37.9659C21.2784 37.9659 21.0918 38.1525 21.0918 38.3826C21.0918 39.4739 21.9797 40.3618 23.071 40.3618C24.1623 40.3618 25.0501 39.4739 25.0501 38.3826C25.0501 37.2913 24.1623 36.4034 23.071 36.4034C22.8409 36.4034 22.6543 36.59 22.6543 36.8201C22.6543 37.0502 22.8409 37.2368 23.071 37.2368C23.7028 37.2368 24.2168 37.7508 24.2168 38.3826C24.2168 39.0144 23.7027 39.5284 23.071 39.5284Z" fill="#008181"></path></g><defs><clipPath id="clip0_130_391"><rect width="25" height="25" fill="white" transform="translate(18 18.2263)"></rect></clipPath></defs></svg>