<svg xmlns="http://www.w3.org/2000/svg" width="60" height="61" viewBox="0 0 60 61" fill="none"><circle opacity="0.3" cx="30" cy="30.2263" r="30" fill="#FFC4DD"></circle><g clip-path="url(#clip0_130_390)"><path d="M21.6455 22.3856C20.7826 22.3856 20.083 23.0851 20.083 23.9481V28.1147H21.1247V23.9481C21.1247 23.6604 21.3579 23.4272 21.6455 23.4272H34.1456V22.3856H21.6455Z" fill="#FF0071"></path><path d="M21.6455 38.0103C21.3579 38.0103 21.1247 37.7771 21.1247 37.4894V32.2811H20.083V37.4894C20.083 38.3524 20.7826 39.0519 21.6455 39.0519H26.8539V38.0103H21.6455Z" fill="#FF0071"></path><path d="M34.514 39.3536L21.865 26.7046C21.6616 26.5013 21.3319 26.5013 21.1285 26.7046L18.1525 29.6807C17.9492 29.8841 17.9492 30.2138 18.1525 30.4172L30.8015 43.0662C30.8992 43.1639 31.0316 43.2187 31.1697 43.2187C31.3079 43.2187 31.4403 43.1638 31.5379 43.0662L34.514 40.0901C34.7174 39.8867 34.7174 39.557 34.514 39.3536ZM31.1697 41.9615L19.2572 30.0489L21.4968 27.8093L33.4093 39.7219L31.1697 41.9615Z" fill="#FF0071"></path><path d="M40.9165 38.0103H33.104V39.0519H38.8332V41.6561C38.8332 41.9437 39.0664 42.1769 39.354 42.1769H40.9165C42.0671 42.1769 42.9999 41.2442 42.9999 40.0936C42.9999 38.943 42.0671 38.0103 40.9165 38.0103ZM40.9165 41.1353H39.8749V39.0519H40.9165C41.4918 39.0519 41.9582 39.5183 41.9582 40.0936C41.9582 40.6689 41.4918 41.1353 40.9165 41.1353Z" fill="#FF0071"></path><path d="M40.9167 22.3856H38.3125V23.4272H40.9167C41.492 23.4272 41.9583 23.8936 41.9583 24.4689V40.0939H43V24.4689C43 23.3183 42.0672 22.3856 40.9167 22.3856Z" fill="#FF0071"></path><path d="M27.5275 32.9546L25.9648 34.5172L26.7014 35.2538L28.264 33.6911L27.5275 32.9546Z" fill="#FF0071"></path><path d="M25.4445 30.8716L23.8818 32.4342L24.6184 33.1708L26.181 31.6081L25.4445 30.8716Z" fill="#FF0071"></path><path d="M29.61 35.038L28.0474 36.6006L28.7839 37.3371L30.3465 35.7745L29.61 35.038Z" fill="#FF0071"></path><path d="M31.6945 37.1225L30.1318 38.6851L30.8684 39.4217L32.431 37.859L31.6945 37.1225Z" fill="#FF0071"></path><path d="M23.3595 28.7879L21.7969 30.3506L22.5334 31.0871L24.0961 29.5245L23.3595 28.7879Z" fill="#FF0071"></path><path d="M40.4657 19.3895L39.7459 18.6697C39.1369 18.0883 38.1784 18.0883 37.5694 18.6697L29.6496 26.5895C29.4462 26.7929 29.4462 27.1226 29.6496 27.326L31.8095 29.4859C31.9069 29.5839 32.0395 29.6389 32.1777 29.6385C32.3158 29.6384 32.4482 29.5836 32.5459 29.4859L40.4657 21.566C40.466 21.5658 40.4662 21.5656 40.4665 21.5653C41.0671 20.9643 41.0668 19.9901 40.4657 19.3895ZM39.7298 20.8291L32.1777 28.3812L30.7543 26.9577L38.3064 19.4061C38.503 19.2182 38.8128 19.2182 39.0095 19.4061L39.7298 20.1254C39.7299 20.1255 39.73 20.1256 39.7301 20.1257C39.9242 20.3199 39.9241 20.6349 39.7298 20.8291Z" fill="#FF0071"></path><path d="M32.0104 28.6239L29.7625 29.3744L30.513 27.1228L29.5234 26.7932L28.4432 30.0333C28.4255 30.0864 28.4165 30.142 28.4165 30.198C28.4166 30.4856 28.6498 30.7188 28.9375 30.7187C28.9926 30.7189 29.0474 30.7104 29.1 30.6937L32.3401 29.6134L32.0104 28.6239Z" fill="#FF0071"></path><path d="M36.8655 20.1094L36.1289 20.8459L38.2889 23.0059L39.0254 22.2694L36.8655 20.1094Z" fill="#FF0071"></path><path d="M36.75 29.6769H28.9375V30.7185H36.75V29.6769Z" fill="#FF0071"></path><path d="M38.8332 29.6769H37.7915V30.7185H38.8332V29.6769Z" fill="#FF0071"></path><path d="M40.9167 29.6769H39.875V30.7185H40.9167V29.6769Z" fill="#FF0071"></path></g><defs><clipPath id="clip0_130_390"><rect width="25" height="25" fill="white" transform="translate(18 18.2263)"></rect></clipPath></defs></svg>