<svg xmlns="http://www.w3.org/2000/svg" width="30" height="37" viewBox="0 0 30 37" fill="none"><path d="M20.8726 28.5303H8.91509C8.13354 28.5303 7.5 27.8937 7.5 27.1085C7.5 26.3232 8.13354 25.6867 8.91509 25.6867H20.8726C21.6542 25.6867 22.2877 26.3232 22.2877 27.1085C22.2877 27.8937 21.6542 28.5303 20.8726 28.5303ZM22.2877 21.6345C22.2877 20.8493 21.6542 20.2127 20.8726 20.2127H18.1132C17.3316 20.2127 16.6981 20.8493 16.6981 21.6345C16.6981 22.4198 17.3316 23.0563 18.1132 23.0563H20.8726C21.6542 23.0563 22.2877 22.4198 22.2877 21.6345ZM30 28.317V8.98051C30 4.27663 26.1911 0.449707 21.5094 0.449707H8.49057C3.80887 0.449707 0 4.27663 0 8.98051V28.317C0 33.0209 3.80887 36.8478 8.49057 36.8478H21.5094C26.1911 36.8478 30 33.0209 30 28.317ZM21.5094 3.29331C24.6306 3.29331 27.1698 5.84459 27.1698 8.98051V28.317C27.1698 31.4529 24.6306 34.0042 21.5094 34.0042H8.49057C5.36943 34.0042 2.83019 31.4529 2.83019 28.317V8.98051C2.83019 5.84459 5.36943 3.29331 8.49057 3.29331H21.5094ZM22.6415 7.41653C22.6415 6.63127 22.008 5.99473 21.2264 5.99473C20.4449 5.99473 19.8113 6.63127 19.8113 7.41653C19.8113 8.5925 18.8591 9.54923 17.6887 9.54923H12.3113C11.1409 9.54923 10.1887 8.5925 10.1887 7.41653C10.1887 6.63127 9.55514 5.99473 8.77358 5.99473C7.99203 5.99473 7.35849 6.63127 7.35849 7.41653C7.35849 10.1605 9.58033 12.3928 12.3113 12.3928H17.6887C20.4197 12.3928 22.6415 10.1605 22.6415 7.41653ZM12.8632 22.2049L15.5803 19.4513C16.1306 18.8937 16.1268 17.9935 15.5717 17.4406C15.0168 16.8878 14.1208 16.8916 13.5705 17.4493L10.8533 20.2029C10.8404 20.2159 10.8243 20.2159 10.8114 20.2029L9.49535 18.8691C8.94509 18.3114 8.04913 18.3076 7.49413 18.8605C6.93913 19.4133 6.93531 20.3135 7.4855 20.8712L8.80153 22.2049C9.3433 22.7539 10.0645 23.0563 10.8323 23.0563C11.6003 23.0563 12.3215 22.754 12.8632 22.2049Z" fill="#76B947"></path></svg>