<svg xmlns="http://www.w3.org/2000/svg" width="30" height="37" viewBox="0 0 30 37" fill="none"><path d="M21.5094 36.8478H8.49057C3.80887 36.8478 0 33.0209 0 28.317V8.98051C0 4.27663 3.80887 0.449707 8.49057 0.449707H21.5094C26.1911 0.449707 30 4.27663 30 8.98051V28.317C30 33.0209 26.1911 36.8478 21.5094 36.8478ZM8.49057 3.29331C5.36943 3.29331 2.83019 5.84459 2.83019 8.98051V28.317C2.83019 31.4529 5.36943 34.0042 8.49057 34.0042H21.5094C24.6306 34.0042 27.1698 31.4529 27.1698 28.317V8.98051C27.1698 5.84459 24.6306 3.29331 21.5094 3.29331H8.49057ZM22.0755 27.3849C22.0755 23.7438 19.1166 20.7815 15.4797 20.7815H14.5203C10.8833 20.7815 7.92453 23.7438 7.92453 27.3849C7.92453 28.1702 8.55807 28.8067 9.33962 28.8067C10.1212 28.8067 10.7547 28.1702 10.7547 27.3849C10.7547 25.3117 12.444 23.6251 14.5203 23.6251H15.4797C17.5561 23.6251 19.2453 25.3117 19.2453 27.3849C19.2453 28.1702 19.8788 28.8067 20.6604 28.8067C21.4419 28.8067 22.0755 28.1702 22.0755 27.3849ZM15.1415 18.4355C12.3325 18.4355 10.0472 16.1393 10.0472 13.317C10.0472 10.4947 12.3325 8.19852 15.1415 8.19852C17.9505 8.19852 20.2358 10.4947 20.2358 13.317C20.2358 16.1393 17.9505 18.4355 15.1415 18.4355ZM15.1415 11.0421C13.893 11.0421 12.8774 12.0626 12.8774 13.317C12.8774 14.5714 13.893 15.5919 15.1415 15.5919C16.39 15.5919 17.4057 14.5714 17.4057 13.317C17.4057 12.0626 16.39 11.0421 15.1415 11.0421Z" fill="#76B947"></path></svg>