<svg xmlns="http://www.w3.org/2000/svg" width="30" height="31" viewBox="0 0 30 31" fill="none"><path d="M15.0196 17.0903C15.8286 17.0903 16.4844 16.4344 16.4844 15.6254C16.4844 14.8164 15.8286 14.1606 15.0196 14.1606C14.2106 14.1606 13.5547 14.8164 13.5547 15.6254C13.5547 16.4344 14.2106 17.0903 15.0196 17.0903Z" fill="#76B947"></path><path d="M21.3281 16.1528C18.2587 16.1528 15.7617 18.6499 15.7617 21.7192C15.7617 24.7885 18.2587 27.2856 21.3281 27.2856C24.3974 27.2856 26.8944 24.7885 26.8944 21.7192C26.8944 18.6499 24.3974 16.1528 21.3281 16.1528ZM21.3281 24.9418C19.5511 24.9418 18.1054 23.4961 18.1054 21.7192C18.1054 19.9422 19.5511 18.4965 21.3281 18.4965C23.105 18.4965 24.5507 19.9422 24.5507 21.7192C24.5507 23.4961 23.105 24.9418 21.3281 24.9418Z" fill="#76B947"></path><path d="M10.6054 5.66453C11.2527 5.66453 11.7773 5.13989 11.7773 4.49266C11.7773 3.55575 12.5395 2.79345 13.4765 2.79345H16.5234C17.4604 2.79345 18.2226 3.55575 18.2226 4.49266C18.2226 5.13989 18.7472 5.66453 19.3945 5.66453C20.0417 5.66453 20.5663 5.13989 20.5663 4.49266C20.5663 2.26335 18.7527 0.449707 16.5234 0.449707H13.4765C11.2472 0.449707 9.43356 2.26335 9.43356 4.49266C9.43356 5.13989 9.95821 5.66453 10.6054 5.66453Z" fill="#76B947"></path><path d="M8.1445 16.1528C8.1445 15.5056 7.61986 14.9809 6.97263 14.9809C6.32541 14.9809 5.80076 15.5056 5.80076 16.1528C5.80076 19.6744 8.66581 22.5395 12.1875 22.5395C12.8347 22.5395 13.3593 22.0148 13.3593 21.3676C13.3593 20.7204 12.8347 20.1957 12.1875 20.1957C9.95815 20.1957 8.1445 18.3821 8.1445 16.1528Z" fill="#76B947"></path><path d="M22.9687 7.94968H7.03123C3.15421 7.94968 0 11.1039 0 14.9809V23.4184C0 27.2954 3.15421 30.4496 7.03123 30.4496H16.5234C17.1706 30.4496 17.6953 29.925 17.6953 29.2777C17.6953 28.6305 17.1706 28.1059 16.5234 28.1059H7.03123C4.44655 28.1059 2.34374 26.0031 2.34374 23.4184V14.9809C2.34374 12.3962 4.44655 10.2934 7.03123 10.2934H22.9687C25.5534 10.2934 27.6562 12.3962 27.6562 14.9809V16.5629C27.6562 17.2102 28.1808 17.7348 28.828 17.7348C29.4753 17.7348 29.9999 17.2102 29.9999 16.5629V14.9809C29.9999 11.1039 26.8457 7.94968 22.9687 7.94968Z" fill="#76B947"></path><path d="M28.0161 26.8084C27.5585 26.3507 26.8165 26.3507 26.3589 26.8084C25.9012 27.2661 25.9012 28.0081 26.3589 28.4657L27.9995 30.1063C28.2283 30.3352 28.5282 30.4496 28.8281 30.4496C29.1281 30.4496 29.4279 30.3352 29.6567 30.1064C30.1144 29.6487 30.1144 28.9067 29.6567 28.4491L28.0161 26.8084Z" fill="#76B947"></path></svg>