<svg xmlns="http://www.w3.org/2000/svg" width="40" height="49" viewBox="0 0 40 49" fill="none"><path d="M28.6792 48.5308H11.3208C5.07849 48.5308 0 43.4282 0 37.1564V11.3744C0 5.10256 5.07849 0 11.3208 0H28.6792C34.9215 0 40 5.10256 40 11.3744V37.1564C40 43.4282 34.9215 48.5308 28.6792 48.5308ZM11.3208 3.79147C7.15925 3.79147 3.77358 7.19317 3.77358 11.3744V37.1564C3.77358 41.3376 7.15925 44.7393 11.3208 44.7393H28.6792C32.8408 44.7393 36.2264 41.3376 36.2264 37.1564V11.3744C36.2264 7.19317 32.8408 3.79147 28.6792 3.79147H11.3208ZM29.434 35.9136C29.434 31.0588 25.4889 27.109 20.6396 27.109H19.3604C14.5111 27.109 10.566 31.0588 10.566 35.9136C10.566 36.9607 11.4108 37.8094 12.4528 37.8094C13.4949 37.8094 14.3396 36.9607 14.3396 35.9136C14.3396 33.1494 16.592 30.9005 19.3604 30.9005H20.6396C23.4081 30.9005 25.6604 33.1494 25.6604 35.9136C25.6604 36.9607 26.5051 37.8094 27.5472 37.8094C28.5892 37.8094 29.434 36.9607 29.434 35.9136ZM20.1887 23.981C16.4433 23.981 13.3962 20.9195 13.3962 17.1564C13.3962 13.3933 16.4433 10.3318 20.1887 10.3318C23.9341 10.3318 26.9811 13.3933 26.9811 17.1564C26.9811 20.9195 23.9341 23.981 20.1887 23.981ZM20.1887 14.1232C18.5241 14.1232 17.1698 15.4839 17.1698 17.1564C17.1698 18.8289 18.5241 20.1896 20.1887 20.1896C21.8533 20.1896 23.2075 18.8289 23.2075 17.1564C23.2075 15.4839 21.8533 14.1232 20.1887 14.1232Z" fill="white"></path></svg>