<svg xmlns="http://www.w3.org/2000/svg" width="50" height="50" viewBox="0 0 50 50" fill="none"><path d="M25.0326 27.7343C26.381 27.7343 27.474 26.6412 27.474 25.2929C27.474 23.9445 26.381 22.8515 25.0326 22.8515C23.6843 22.8515 22.5912 23.9445 22.5912 25.2929C22.5912 26.6412 23.6843 27.7343 25.0326 27.7343Z" fill="white"></path><path d="M35.5468 26.1718C30.4312 26.1718 26.2694 30.3336 26.2694 35.4491C26.2694 40.5646 30.4312 44.7264 35.5468 44.7264C40.6623 44.7264 44.8241 40.5646 44.8241 35.4491C44.8241 30.3336 40.6623 26.1718 35.5468 26.1718ZM35.5468 40.8202C32.5851 40.8202 30.1757 38.4107 30.1757 35.4491C30.1757 32.4875 32.5851 30.078 35.5468 30.078C38.5084 30.078 40.9178 32.4875 40.9178 35.4491C40.9178 38.4107 38.5084 40.8202 35.5468 40.8202Z" fill="white"></path><path d="M17.6757 8.69138C18.7544 8.69138 19.6288 7.81697 19.6288 6.73826C19.6288 5.17674 20.8992 3.90624 22.4609 3.90624H27.539C29.1006 3.90624 30.371 5.17674 30.371 6.73826C30.371 7.81697 31.2454 8.69138 32.3241 8.69138C33.4028 8.69138 34.2772 7.81697 34.2772 6.73826C34.2772 3.02274 31.2545 0 27.539 0H22.4609C18.7453 0 15.7226 3.02274 15.7226 6.73826C15.7226 7.81697 16.597 8.69138 17.6757 8.69138Z" fill="white"></path><path d="M13.5742 26.1718C13.5742 25.0931 12.6998 24.2187 11.6211 24.2187C10.5423 24.2187 9.66794 25.0931 9.66794 26.1718C9.66794 32.0412 14.443 36.8163 20.3124 36.8163C21.3911 36.8163 22.2656 35.9419 22.2656 34.8632C22.2656 33.7845 21.3911 32.91 20.3124 32.91C16.5969 32.91 13.5742 29.8873 13.5742 26.1718Z" fill="white"></path><path d="M38.2811 12.5H11.7187C5.25701 12.5 0 17.757 0 24.2187V38.2811C0 44.7428 5.25701 49.9998 11.7187 49.9998H27.539C28.6177 49.9998 29.4921 49.1254 29.4921 48.0467C29.4921 46.968 28.6177 46.0936 27.539 46.0936H11.7187C7.41091 46.0936 3.90624 42.5889 3.90624 38.2811V24.2187C3.90624 19.9109 7.41091 16.4062 11.7187 16.4062H38.2811C42.5889 16.4062 46.0936 19.9109 46.0936 24.2187V26.8554C46.0936 27.9341 46.968 28.8085 48.0467 28.8085C49.1254 28.8085 49.9998 27.9341 49.9998 26.8554V24.2187C49.9998 17.757 44.7428 12.5 38.2811 12.5Z" fill="white"></path><path d="M46.6935 43.9312C45.9308 43.1684 44.6941 43.1684 43.9314 43.9312C43.1688 44.6939 43.1687 45.9306 43.9314 46.6933L46.6658 49.4277C47.0472 49.8091 47.547 49.9998 48.0469 49.9998C48.5468 49.9998 49.0466 49.8091 49.4279 49.4278C50.1907 48.665 50.1907 47.4283 49.4279 46.6656L46.6935 43.9312Z" fill="white"></path></svg>