<svg xmlns="http://www.w3.org/2000/svg" width="40" height="49" viewBox="0 0 40 49" fill="none"><path d="M27.8301 37.4408H11.8867C10.8446 37.4408 9.99988 36.592 9.99988 35.545C9.99988 34.498 10.8446 33.6493 11.8867 33.6493H27.8301C28.8721 33.6493 29.7169 34.498 29.7169 35.545C29.7169 36.592 28.8721 37.4408 27.8301 37.4408ZM29.7169 28.2464C29.7169 27.1994 28.8721 26.3507 27.8301 26.3507H24.1508C23.1087 26.3507 22.264 27.1994 22.264 28.2464C22.264 29.2935 23.1087 30.1422 24.1508 30.1422H27.8301C28.8721 30.1422 29.7169 29.2935 29.7169 28.2464ZM39.9999 37.1564V11.3744C39.9999 5.10256 34.9214 0 28.6791 0H11.3206C5.07837 0 -0.00012207 5.10256 -0.00012207 11.3744V37.1564C-0.00012207 43.4282 5.07837 48.5308 11.3206 48.5308H28.6791C34.9214 48.5308 39.9999 43.4282 39.9999 37.1564ZM28.6791 3.79147C32.8406 3.79147 36.2263 7.19317 36.2263 11.3744V37.1564C36.2263 41.3376 32.8406 44.7393 28.6791 44.7393H11.3206C7.15912 44.7393 3.77346 41.3376 3.77346 37.1564V11.3744C3.77346 7.19317 7.15912 3.79147 11.3206 3.79147H28.6791ZM30.1886 9.2891C30.1886 8.24208 29.3438 7.39336 28.3018 7.39336C27.2597 7.39336 26.415 8.24208 26.415 9.2891C26.415 10.8571 25.1453 12.1327 23.5848 12.1327H16.415C14.8544 12.1327 13.5848 10.8571 13.5848 9.2891C13.5848 8.24208 12.7401 7.39336 11.698 7.39336C10.6559 7.39336 9.8112 8.24208 9.8112 9.2891C9.8112 12.9477 12.7737 15.9242 16.415 15.9242H23.5848C27.2261 15.9242 30.1886 12.9477 30.1886 9.2891ZM17.1508 29.0069L20.7737 25.3354C21.5073 24.5919 21.5022 23.3917 20.7621 22.6545C20.0222 21.9174 18.8276 21.9225 18.0938 22.6661L14.4709 26.3375C14.4537 26.355 14.4322 26.3549 14.4151 26.3375L12.6603 24.5592C11.9267 23.8156 10.732 23.8105 9.99205 24.5477C9.25205 25.2848 9.24695 26.4851 9.98054 27.2286L11.7353 29.0069C12.4576 29.739 13.4192 30.1422 14.443 30.1422C15.467 30.1422 16.4286 29.7391 17.1508 29.0069V29.0069Z" fill="white"></path></svg>