<svg xmlns="http://www.w3.org/2000/svg" width="80" height="81" viewBox="0 0 80 81" fill="none"><circle opacity="0.2" cx="40" cy="40.1001" r="40" fill="#867BF2"></circle><g clip-path="url(#clip0_148_393)"><path d="M53.5775 43.6398H50.8398V28.5356C50.8398 27.7441 50.1959 27.1001 49.4043 27.1001H45.5341C45.2914 27.1001 45.0947 27.2969 45.0947 27.5396C45.0947 27.7822 45.2914 27.979 45.5341 27.979H49.4043C49.7112 27.979 49.9609 28.2287 49.9609 28.5356V43.6397H37.7668C36.9819 43.6397 36.3443 44.2793 36.3443 45.0622V53.7165H30.5957C30.2888 53.7165 30.0391 53.4668 30.0391 53.1599V42.7724C36.1864 42.7724 35.804 42.7735 35.8626 42.7704C36.6226 42.7317 37.2231 42.0986 37.2231 41.3369V35.634C37.2231 34.8424 36.5792 34.1984 35.7876 34.1984H30.0391V28.5356C30.0391 28.2287 30.2888 27.979 30.5957 27.979H43.4833C43.7261 27.979 43.9228 27.7822 43.9228 27.5396C43.9228 27.2969 43.7261 27.1001 43.4833 27.1001H30.5957C29.8041 27.1001 29.1602 27.7441 29.1602 28.5356V34.1984H26.4355C25.6439 34.1984 25 34.8424 25 35.634V41.3369C25 42.1285 25.6439 42.7725 26.4355 42.7725H29.1602V53.16C29.1602 53.9515 29.8041 54.5955 30.5957 54.5955H36.3442V55.6777C36.3442 56.4289 36.9354 57.06 37.6932 57.0983H37.6936C37.7179 57.0995 37.7423 57.1002 37.7667 57.1002C53.9782 57.1002 53.6509 57.0983 53.6509 57.0983C54.4048 57.0602 54.9999 56.4329 54.9999 55.6777V52.9177C54.9999 52.675 54.8032 52.4782 54.5605 52.4782C54.3177 52.4782 54.121 52.675 54.121 52.9177V55.6777C54.121 55.6813 54.1206 55.6849 54.1205 55.6885L47.667 50.7549L54.1211 45.4436V50.8669C54.1211 51.1096 54.3178 51.3063 54.5605 51.3063C54.8033 51.3063 55 51.1096 55 50.8669V45.0623C55 44.2798 54.3631 43.6398 53.5775 43.6398ZM25.8789 41.3369V35.6339C25.8789 35.327 26.1286 35.0773 26.4355 35.0773H35.7876C36.0945 35.0773 36.3442 35.327 36.3442 35.6339V41.3368C36.3442 41.6382 36.0981 41.8934 35.7876 41.8934H29.5996C29.5994 41.8934 29.5993 41.8934 29.599 41.8934H26.4355C26.1286 41.8935 25.8789 41.6438 25.8789 41.3369V41.3369ZM53.8021 44.5678L45.9135 51.0596C45.7684 51.179 45.5624 51.1679 45.4308 51.0596C44.9639 50.6754 37.9962 44.9415 37.5422 44.5679C37.6111 44.5368 37.6843 44.5187 37.7668 44.5187H53.5775C53.6495 44.5187 53.7285 44.5344 53.8021 44.5678ZM37.2237 55.6885C37.2237 55.6848 37.2232 55.6812 37.2232 55.6776C37.2232 55.2715 37.2232 45.9988 37.2232 45.4436L43.6772 50.7548L37.2237 55.6885ZM46.9701 51.3283L53.3703 56.2212C52.752 56.2212 38.6427 56.2212 37.9739 56.2212L44.3741 51.3283L44.8723 51.7383C45.3378 52.1215 46.0143 52.115 46.4719 51.7383L46.9701 51.3283Z" fill="#867BF2"></path><path d="M31.093 30.8892C31.093 31.8584 31.8815 32.647 32.8508 32.647C33.82 32.647 34.6086 31.8584 34.6086 30.8892C34.6086 29.9199 33.82 29.1313 32.8508 29.1313C31.8815 29.1313 31.093 29.9199 31.093 30.8892V30.8892ZM33.7297 30.8892C33.7297 31.3738 33.3354 31.7681 32.8508 31.7681C32.3661 31.7681 31.9719 31.3738 31.9719 30.8892C31.9719 30.4045 32.3661 30.0103 32.8508 30.0103C33.3354 30.0103 33.7297 30.4045 33.7297 30.8892Z" fill="#867BF2"></path><path d="M30.3082 38.4851C30.3082 37.5158 29.5197 36.7273 28.5504 36.7273C27.5812 36.7273 26.7926 37.5158 26.7926 38.4851C26.7926 39.4544 27.5812 40.2429 28.5504 40.2429C29.5197 40.2429 30.3082 39.4544 30.3082 38.4851ZM27.6715 38.4851C27.6715 38.0005 28.0658 37.6062 28.5504 37.6062C29.035 37.6062 29.4293 38.0005 29.4293 38.4851C29.4293 38.9697 29.035 39.364 28.5504 39.364C28.0658 39.364 27.6715 38.9697 27.6715 38.4851Z" fill="#867BF2"></path><path d="M45.6724 49.5901C46.6417 49.5901 47.4302 48.8015 47.4302 47.8323C47.4302 46.863 46.6417 46.0745 45.6724 46.0745C44.7032 46.0745 43.9146 46.863 43.9146 47.8323C43.9146 48.8015 44.7032 49.5901 45.6724 49.5901ZM45.6724 46.9534C46.1571 46.9534 46.5513 47.3476 46.5513 47.8323C46.5513 48.3169 46.1571 48.7112 45.6724 48.7112C45.1878 48.7112 44.7935 48.3169 44.7935 47.8323C44.7935 47.3476 45.1877 46.9534 45.6724 46.9534Z" fill="#867BF2"></path><path d="M35.5193 30.916C35.5193 31.1587 35.716 31.3555 35.9587 31.3555H47.3839C47.6267 31.3555 47.8234 31.1587 47.8234 30.916C47.8234 30.6733 47.6267 30.4766 47.3839 30.4766H35.9587C35.716 30.4766 35.5193 30.6733 35.5193 30.916V30.916Z" fill="#867BF2"></path><path d="M31.4453 38.9248H35.0801C35.3228 38.9248 35.5195 38.728 35.5195 38.4854C35.5195 38.2427 35.3228 38.0459 35.0801 38.0459H31.4453C31.2026 38.0459 31.0059 38.2427 31.0059 38.4854C31.0059 38.728 31.2026 38.9248 31.4453 38.9248V38.9248Z" fill="#867BF2"></path></g><defs><clipPath id="clip0_148_393"><rect width="30" height="30" fill="white" transform="translate(25 27.1001)"></rect></clipPath></defs></svg>