<svg xmlns="http://www.w3.org/2000/svg" width="80" height="81" viewBox="0 0 80 81" fill="none"><circle opacity="0.2" cx="40" cy="40.1001" r="40" fill="#F0A14C"></circle><path d="M27.319 32.147C27.4346 32.147 27.5485 32.1 27.6301 32.0178C27.7123 31.9362 27.7593 31.8229 27.7593 31.7067C27.7593 31.591 27.7123 31.4771 27.6301 31.3955C27.5485 31.3133 27.4346 31.2664 27.319 31.2664C27.2033 31.2664 27.0894 31.3133 27.0078 31.3955C26.9256 31.4771 26.8787 31.591 26.8787 31.7067C26.8787 31.8223 26.9256 31.9362 27.0078 32.0178C27.0894 32.1 27.2033 32.147 27.319 32.147Z" fill="#F0A14C"></path><path d="M28.728 32.147C28.8436 32.147 28.9575 32.1 29.0391 32.0178C29.1213 31.9362 29.1683 31.8223 29.1683 31.7067C29.1683 31.591 29.1213 31.4771 29.0391 31.3955C28.9575 31.3133 28.8436 31.2664 28.728 31.2664C28.6123 31.2664 28.4984 31.3133 28.4168 31.3955C28.3346 31.4771 28.2877 31.591 28.2877 31.7067C28.2877 31.8223 28.3346 31.9362 28.4168 32.0178C28.4984 32.1 28.6123 32.147 28.728 32.147Z" fill="#F0A14C"></path><path d="M30.137 32.147C30.2527 32.147 30.3665 32.1 30.4482 32.0178C30.5303 31.9362 30.5773 31.8223 30.5773 31.7067C30.5773 31.591 30.5303 31.4771 30.4482 31.3955C30.3665 31.3133 30.2527 31.2664 30.137 31.2664C30.0208 31.2664 29.9074 31.3133 29.8258 31.3955C29.7437 31.4771 29.6967 31.591 29.6967 31.7067C29.6967 31.8223 29.7437 31.9362 29.8258 32.0178C29.9074 32.1 30.0213 32.147 30.137 32.147Z" fill="#F0A14C"></path><path d="M32.0157 32.147H49.863C50.1062 32.147 50.3033 31.9498 50.3033 31.7067C50.3033 31.4635 50.1062 31.2664 49.863 31.2664H32.0157C31.7725 31.2664 31.5753 31.4635 31.5753 31.7067C31.5753 31.9498 31.7725 32.147 32.0157 32.147Z" fill="#F0A14C"></path><path d="M51.7417 32.147H52.681C52.9242 32.147 53.1213 31.9498 53.1213 31.7067C53.1213 31.4635 52.9242 31.2664 52.681 31.2664H51.7417C51.4985 31.2664 51.3014 31.4635 51.3014 31.7067C51.3014 31.9498 51.4985 32.147 51.7417 32.147Z" fill="#F0A14C"></path><path d="M38.1213 35.9631H28.728C28.2262 35.9631 27.818 36.3713 27.818 36.8731V38.7518C27.818 39.2536 28.2262 39.6618 28.728 39.6618H38.1213C38.6231 39.6618 39.0313 39.2536 39.0313 38.7518V36.8731C39.0313 36.3713 38.6231 35.9631 38.1213 35.9631ZM38.1507 38.7518C38.1507 38.7679 38.1375 38.7811 38.1213 38.7811H28.728C28.7118 38.7811 28.6986 38.7679 28.6986 38.7518V36.8731C28.6986 36.857 28.7118 36.8438 28.728 36.8438H38.1213C38.1375 36.8438 38.1507 36.857 38.1507 36.8731V38.7518Z" fill="#F0A14C"></path><path d="M51.7417 37.372H48.8219C48.6376 36.8266 48.1215 36.4326 47.5147 36.4326C46.9079 36.4326 46.3917 36.8266 46.2075 37.372H45.1663C44.9232 37.372 44.726 37.5691 44.726 37.8123C44.726 38.0554 44.9232 38.2526 45.1663 38.2526H46.2075C46.3917 38.798 46.9079 39.1919 47.5147 39.1919C48.1215 39.1919 48.6376 38.798 48.8219 38.2526H51.7417C51.9848 38.2526 52.182 38.0554 52.182 37.8123C52.182 37.5691 51.9848 37.372 51.7417 37.372ZM47.5147 38.3113C47.2395 38.3113 47.0156 38.0874 47.0156 37.8123C47.0156 37.5371 47.2395 37.3132 47.5147 37.3132C47.7898 37.3132 48.0137 37.5371 48.0137 37.8123C48.0137 38.0874 47.7898 38.3113 47.5147 38.3113Z" fill="#F0A14C"></path><path d="M41.8787 35.9631C40.859 35.9631 40.0294 36.7927 40.0294 37.8124C40.0294 38.8322 40.859 39.6618 41.8787 39.6618C42.8984 39.6618 43.728 38.8322 43.728 37.8124C43.728 36.7927 42.8984 35.9631 41.8787 35.9631ZM41.8787 38.7811C41.3445 38.7811 40.91 38.3466 40.91 37.8124C40.91 37.2783 41.3445 36.8438 41.8787 36.8438C42.4128 36.8438 42.8474 37.2783 42.8474 37.8124C42.8474 38.3466 42.4128 38.7811 41.8787 38.7811Z" fill="#F0A14C"></path><path d="M38.1213 41.1294H28.728C28.2262 41.1294 27.818 41.5376 27.818 42.0394V43.918C27.818 44.4198 28.2262 44.828 28.728 44.828H38.1213C38.6231 44.828 39.0313 44.4198 39.0313 43.918V42.0394C39.0313 41.5376 38.6231 41.1294 38.1213 41.1294ZM38.1507 43.918C38.1507 43.9342 38.1375 43.9474 38.1213 43.9474H28.728C28.7118 43.9474 28.6986 43.9342 28.6986 43.918V42.0394C28.6986 42.0232 28.7118 42.01 28.728 42.01H38.1213C38.1375 42.01 38.1507 42.0232 38.1507 42.0394V43.918Z" fill="#F0A14C"></path><path d="M51.7417 42.5385H51.17C50.9857 41.9931 50.4696 41.5991 49.8628 41.5991C49.256 41.5991 48.7398 41.9931 48.5556 42.5385H45.1663C44.9232 42.5385 44.726 42.7356 44.726 42.9788C44.726 43.2219 44.9232 43.4191 45.1663 43.4191H48.5556C48.7398 43.9645 49.256 44.3584 49.8628 44.3584C50.4696 44.3584 50.9858 43.9645 51.17 43.4191H51.7417C51.9849 43.4191 52.182 43.2219 52.182 42.9788C52.182 42.7356 51.9848 42.5385 51.7417 42.5385ZM49.8628 43.4778C49.5877 43.4778 49.3638 43.2539 49.3638 42.9788C49.3638 42.7036 49.5877 42.4797 49.8628 42.4797C50.138 42.4797 50.3618 42.7036 50.3618 42.9788C50.3618 43.2539 50.138 43.4778 49.8628 43.4778Z" fill="#F0A14C"></path><path d="M41.8787 41.1294C40.859 41.1294 40.0294 41.959 40.0294 42.9787C40.0294 43.9984 40.859 44.828 41.8787 44.828C42.8984 44.828 43.728 43.9984 43.728 42.9787C43.728 41.959 42.8984 41.1294 41.8787 41.1294ZM41.8787 43.9474C41.3445 43.9474 40.91 43.5128 40.91 42.9787C40.91 42.4446 41.3445 42.01 41.8787 42.01C42.4128 42.01 42.8474 42.4446 42.8474 42.9787C42.8474 43.5128 42.4128 43.9474 41.8787 43.9474Z" fill="#F0A14C"></path><path d="M38.1213 46.2957H28.728C28.2262 46.2957 27.818 46.7039 27.818 47.2056V49.0843C27.818 49.5861 28.2262 49.9943 28.728 49.9943H38.1213C38.6231 49.9943 39.0313 49.5861 39.0313 49.0843V47.2056C39.0313 46.7039 38.6231 46.2957 38.1213 46.2957ZM38.1507 49.0843C38.1507 49.1004 38.1375 49.1137 38.1213 49.1137H28.728C28.7118 49.1137 28.6986 49.1004 28.6986 49.0843V47.2056C28.6986 47.1895 28.7118 47.1763 28.728 47.1763H38.1213C38.1375 47.1763 38.1507 47.1895 38.1507 47.2056V49.0843Z" fill="#F0A14C"></path><path d="M51.7417 47.7047H49.2913C49.1071 47.1593 48.5909 46.7654 47.9841 46.7654C47.3773 46.7654 46.8611 47.1593 46.6769 47.7047H45.1663C44.9232 47.7047 44.726 47.9019 44.726 48.145C44.726 48.3882 44.9232 48.5853 45.1663 48.5853H46.677C46.8612 49.1307 47.3773 49.5247 47.9842 49.5247C48.591 49.5247 49.1071 49.1307 49.2914 48.5853H51.7417C51.9848 48.5853 52.182 48.3882 52.182 48.145C52.182 47.9019 51.9848 47.7047 51.7417 47.7047ZM47.9842 48.6441C47.709 48.6441 47.4851 48.4202 47.4851 48.145C47.4851 47.8699 47.709 47.646 47.9842 47.646C48.2593 47.646 48.4832 47.8699 48.4832 48.145C48.4832 48.4202 48.2593 48.6441 47.9842 48.6441Z" fill="#F0A14C"></path><path d="M41.8787 46.2957C40.859 46.2957 40.0294 47.1253 40.0294 48.145C40.0294 49.1647 40.859 49.9943 41.8787 49.9943C42.8984 49.9943 43.728 49.1647 43.728 48.145C43.728 47.1253 42.8984 46.2957 41.8787 46.2957ZM41.8787 49.1137C41.3445 49.1137 40.91 48.6791 40.91 48.145C40.91 47.6108 41.3445 47.1763 41.8787 47.1763C42.4128 47.1763 42.8474 47.6108 42.8474 48.145C42.8474 48.6791 42.4128 49.1137 41.8787 49.1137Z" fill="#F0A14C"></path><path d="M52.681 29.3877H27.319C26.0403 29.3877 25 30.428 25 31.7067V50.4934C25 51.772 26.0403 52.8124 27.319 52.8124H52.681C53.9597 52.8124 55 51.772 55 50.4934V31.7067C55 30.428 53.9597 29.3877 52.681 29.3877ZM27.319 30.2683H52.681C53.4741 30.2683 54.1194 30.9136 54.1194 31.7067V33.145H25.8806V31.7067C25.8806 30.9136 26.5259 30.2683 27.319 30.2683ZM52.681 51.9317H27.319C26.5259 51.9317 25.8806 51.2865 25.8806 50.4934V34.0257H54.1194V50.4934C54.1194 51.2865 53.4741 51.9317 52.681 51.9317Z" fill="#F0A14C"></path></svg>