<svg xmlns="http://www.w3.org/2000/svg" width="80" height="81" viewBox="0 0 80 81" fill="none"><circle opacity="0.2" cx="40" cy="40.1" r="40" fill="#DB736F"></circle><path d="M53.8281 27.7131H42.6369C42.3133 27.7131 42.051 27.9755 42.051 28.2991C42.051 28.6227 42.3133 28.885 42.6369 28.885H53.8281V32.4006H26.1719V28.885H37.3631C37.6867 28.885 37.949 28.6227 37.949 28.2991C37.949 27.9755 37.6867 27.7131 37.3631 27.7131H26.1719C25.5257 27.7131 25 28.2388 25 28.885V51.3151C25 51.9612 25.5257 52.4869 26.1719 52.4869H53.8281C54.4743 52.4869 55 51.9612 55 51.3151V28.885C55 28.2388 54.4743 27.7131 53.8281 27.7131ZM26.1719 51.3151V33.5725H53.8281V51.3151H26.1719Z" fill="#DB736F"></path><path d="M40 28.885C40.3236 28.885 40.5859 28.6227 40.5859 28.2991C40.5859 27.9755 40.3236 27.7131 40 27.7131C39.6764 27.7131 39.4141 27.9755 39.4141 28.2991C39.4141 28.6227 39.6764 28.885 40 28.885Z" fill="#DB736F"></path><path d="M30.5382 30.0569C30.2146 30.0569 29.9523 30.3192 29.9523 30.6428C29.9523 30.9664 30.2146 31.2288 30.5382 31.2288H35.3744C35.698 31.2288 35.9603 30.9664 35.9603 30.6428C35.9603 30.3192 35.698 30.0569 35.3744 30.0569H30.5382Z" fill="#DB736F"></path><path d="M28.1949 31.2288C28.5186 31.2288 28.7809 30.9664 28.7809 30.6428C28.7809 30.3192 28.5186 30.0569 28.1949 30.0569C27.8713 30.0569 27.609 30.3192 27.609 30.6428C27.609 30.9664 27.8713 31.2288 28.1949 31.2288Z" fill="#DB736F"></path><path d="M31.7804 48.5525C32.104 48.5525 32.3663 48.2902 32.3663 47.9666C32.3663 47.6429 32.104 47.3806 31.7804 47.3806C31.4568 47.3806 31.1945 47.6429 31.1945 47.9666C31.1945 48.2902 31.4568 48.5525 31.7804 48.5525Z" fill="#DB736F"></path><path d="M32.1599 46.2087C32.4835 46.2087 32.7459 45.9464 32.7459 45.6228C32.7459 45.2992 32.4835 45.0369 32.1599 45.0369C31.8363 45.0369 31.574 45.2992 31.574 45.6228C31.574 45.9464 31.8363 46.2087 32.1599 46.2087Z" fill="#DB736F"></path><path d="M33.637 43.865C33.9606 43.865 34.223 43.6027 34.223 43.2791C34.223 42.9554 33.9606 42.6931 33.637 42.6931C33.3134 42.6931 33.0511 42.9554 33.0511 43.2791C33.0511 43.6027 33.3134 43.865 33.637 43.865Z" fill="#DB736F"></path><path d="M46.4615 36.3351C45.1692 36.3351 44.1178 37.3865 44.1178 38.6788C44.1178 38.6999 44.1188 38.7207 44.1194 38.7416C42.294 39.1366 40.8038 41.3659 40.1571 44.4652C40.0215 44.2049 39.8701 43.9564 39.7036 43.7223C38.8513 42.5236 37.6855 41.8036 36.4211 41.6951C36.0985 41.6672 35.8148 41.9063 35.7872 42.2287C35.7595 42.5511 35.9984 42.8349 36.3208 42.8627C38.2773 43.0306 39.8097 45.2725 39.8097 47.9666C39.8097 48.2902 40.0721 48.5525 40.3957 48.5525C40.7193 48.5525 40.9816 48.2902 40.9816 47.9666C40.9816 45.7306 41.4081 43.6378 42.1826 42.0735C42.8153 40.7953 43.6279 40.0105 44.4457 39.8727C44.8545 40.5605 45.6049 41.0226 46.4615 41.0226C47.7538 41.0226 48.8052 39.9712 48.8052 38.6789C48.8053 37.3865 47.7539 36.3351 46.4615 36.3351ZM46.4615 39.8507C45.8154 39.8507 45.2897 39.325 45.2897 38.6788C45.2897 38.0327 45.8154 37.507 46.4615 37.507C47.1077 37.507 47.6334 38.0327 47.6334 38.6788C47.6334 39.325 47.1077 39.8507 46.4615 39.8507Z" fill="#DB736F"></path></svg>