<svg xmlns="http://www.w3.org/2000/svg" width="80" height="81" viewBox="0 0 80 81" fill="none"><circle opacity="0.2" cx="40" cy="40.1" r="40" fill="#8BC16A"></circle><path d="M26.875 34.9436H25.9375V33.0686C25.9382 32.4472 26.1854 31.8515 26.6247 31.4121C27.0641 30.9727 27.6599 30.7256 28.2812 30.7249H44.2188V29.7874H43.2812C43.1885 29.7874 43.0979 29.7599 43.0208 29.7084C42.9437 29.6569 42.8836 29.5837 42.8482 29.498C42.8127 29.4124 42.8034 29.3181 42.8215 29.2272C42.8396 29.1362 42.8842 29.0527 42.9498 28.9872L45.7623 26.1747C45.8058 26.1311 45.8575 26.0966 45.9144 26.073C45.9712 26.0495 46.0322 26.0374 46.0938 26.0374C46.1553 26.0374 46.2163 26.0495 46.2731 26.073C46.33 26.0966 46.3817 26.1311 46.4252 26.1747L49.2377 28.9872C49.3033 29.0527 49.3479 29.1362 49.366 29.2272C49.3841 29.3181 49.3748 29.4124 49.3393 29.498C49.3039 29.5837 49.2438 29.6569 49.1667 29.7084C49.0896 29.7599 48.999 29.7874 48.9062 29.7874H47.9688V30.7249H49.8438C50.4651 30.7256 51.0609 30.9727 51.5003 31.4121C51.9396 31.8515 52.1868 32.4472 52.1875 33.0686V42.4436H51.25V33.0686C51.2496 32.6958 51.1013 32.3384 50.8376 32.0747C50.574 31.8111 50.2166 31.6628 49.8438 31.6624H47.9688V40.0999H47.0312V29.3186C47.0312 29.1943 47.0806 29.0751 47.1685 28.9872C47.2565 28.8993 47.3757 28.8499 47.5 28.8499H47.7746L46.0938 27.169L44.4129 28.8499H44.6875C44.8118 28.8499 44.931 28.8993 45.019 28.9872C45.1069 29.0751 45.1562 29.1943 45.1562 29.3186V40.5686H44.2188V31.6624H28.2812C27.9084 31.6628 27.551 31.8111 27.2874 32.0747C27.0237 32.3384 26.8754 32.6958 26.875 33.0686V34.9436ZM28.2812 49.4749H36.0887L34.9637 53.2249H33.9062V54.1624H44.2188V53.2249H43.1613L42.5584 51.2151L41.6604 51.4846L42.1825 53.2249H35.9423L37.0673 49.4749H40.4688V48.5374H28.2812C27.9084 48.5369 27.551 48.3886 27.2874 48.125C27.0237 47.8614 26.8754 47.504 26.875 47.1311V46.6624H40V45.7249H26.875V35.8811H25.9375V47.1311C25.9382 47.7525 26.1854 48.3482 26.6247 48.7876C27.0641 49.227 27.6599 49.4742 28.2812 49.4749V49.4749ZM42.3438 41.5061V34.0061H40.4688V44.7874H28.2812V43.8499H30.1562V40.0999C30.1562 39.9756 30.2056 39.8563 30.2935 39.7684C30.3815 39.6805 30.5007 39.6311 30.625 39.6311H33.4375C33.5618 39.6311 33.681 39.6805 33.769 39.7684C33.8569 39.8563 33.9062 39.9756 33.9062 40.0999V43.8499H34.8438V36.8186C34.8438 36.6943 34.8931 36.5751 34.981 36.4872C35.069 36.3993 35.1882 36.3499 35.3125 36.3499H38.125C38.2493 36.3499 38.3685 36.3993 38.4565 36.4872C38.5444 36.5751 38.5938 36.6943 38.5938 36.8186V43.8499H39.5312V33.5374C39.5312 33.4131 39.5806 33.2938 39.6685 33.2059C39.7565 33.118 39.8757 33.0686 40 33.0686H42.8125C42.9368 33.0686 43.056 33.118 43.144 33.2059C43.2319 33.2938 43.2812 33.4131 43.2812 33.5374V41.5061H42.3438ZM32.9688 40.5686H31.0938V43.8499H32.9688V40.5686ZM37.6562 37.2874H35.7812V43.8499H37.6562V37.2874ZM28.2812 32.5999V33.5374H29.2188V32.5999H28.2812ZM31.0938 32.5999H30.1562V33.5374H31.0938V32.5999ZM32.0312 32.5999V33.5374H32.9688V32.5999H32.0312ZM53.6504 51.762C53.9133 52.0262 54.0613 52.3834 54.0625 52.7561C54.0627 52.9408 54.0264 53.1238 53.9558 53.2945C53.8852 53.4652 53.7816 53.6203 53.651 53.7509C53.5204 53.8815 53.3653 53.9851 53.1946 54.0557C53.0239 54.1263 52.841 54.1625 52.6562 54.1624C52.284 54.1591 51.9275 54.0114 51.6621 53.7503L49.4184 51.5066C48.2381 52.2028 46.8445 52.4447 45.4987 52.1868C44.153 51.9289 42.9474 51.189 42.1082 50.1058C41.269 49.0226 40.8536 47.6705 40.94 46.303C41.0265 44.9355 41.6087 43.6464 42.5776 42.6775C43.5465 41.7086 44.8356 41.1263 46.2031 41.0399C47.5707 40.9535 48.9228 41.3688 50.006 42.2081C51.0891 43.0473 51.829 44.2528 52.0869 45.5986C52.3448 46.9444 52.103 48.338 51.4067 49.5182L53.6504 51.762ZM51.25 46.6624C51.25 45.7353 50.9751 44.829 50.46 44.0581C49.9449 43.2873 49.2129 42.6865 48.3563 42.3317C47.4998 41.9769 46.5573 41.8841 45.648 42.0649C44.7387 42.2458 43.9035 42.6923 43.2479 43.3478C42.5924 44.0034 42.1459 44.8386 41.9651 45.7479C41.7842 46.6572 41.877 47.5997 42.2318 48.4562C42.5866 49.3127 43.1874 50.0448 43.9583 50.5599C44.7291 51.075 45.6354 51.3499 46.5625 51.3499C47.8053 51.3485 48.9967 50.8541 49.8755 49.9754C50.7543 49.0966 51.2486 47.9051 51.25 46.6624V46.6624ZM52.9874 52.425L50.8554 50.2928C50.6532 50.5315 50.4316 50.7531 50.1929 50.9552L52.3251 53.0873C52.3681 53.1326 52.4198 53.1689 52.4771 53.194C52.5344 53.219 52.5961 53.2323 52.6586 53.2331C52.7212 53.2339 52.7832 53.2222 52.8411 53.1987C52.8991 53.1751 52.9517 53.1402 52.9959 53.096C53.0401 53.0518 53.075 52.9992 53.0986 52.9413C53.1221 52.8833 53.1338 52.8213 53.133 52.7588C53.1322 52.6962 53.1189 52.6345 53.0938 52.5772C53.0688 52.5199 53.0325 52.4682 52.9872 52.4252L52.9874 52.425ZM50.3125 46.6624C50.3125 47.4041 50.0926 48.1291 49.6805 48.7458C49.2685 49.3624 48.6828 49.8431 47.9976 50.1269C47.3123 50.4108 46.5583 50.485 45.8309 50.3403C45.1035 50.1956 44.4353 49.8385 43.9109 49.314C43.3864 48.7896 43.0292 48.1214 42.8846 47.394C42.7399 46.6665 42.8141 45.9125 43.098 45.2273C43.3818 44.5421 43.8624 43.9564 44.4791 43.5444C45.0958 43.1323 45.8208 42.9124 46.5625 42.9124C47.5567 42.9135 48.5099 43.3089 49.2129 44.012C49.9159 44.715 50.3114 45.6682 50.3125 46.6624V46.6624ZM49.375 46.6624C49.375 46.1061 49.2101 45.5623 48.901 45.0998C48.592 44.6373 48.1527 44.2768 47.6388 44.064C47.1249 43.8511 46.5594 43.7954 46.0138 43.9039C45.4682 44.0124 44.9671 44.2803 44.5738 44.6736C44.1804 45.067 43.9126 45.5681 43.804 46.1137C43.6955 46.6593 43.7512 47.2248 43.9641 47.7387C44.177 48.2526 44.5374 48.6918 45 49.0009C45.4625 49.3099 46.0062 49.4749 46.5625 49.4749C47.3082 49.4741 48.0231 49.1775 48.5503 48.6502C49.0776 48.1229 49.3742 47.408 49.375 46.6624ZM44.6875 46.6624H45.625C45.6253 46.4138 45.7242 46.1755 45.8999 45.9998C46.0757 45.824 46.3139 45.7252 46.5625 45.7249V44.7874C46.0654 44.7879 45.5888 44.9857 45.2373 45.3372C44.8858 45.6887 44.6881 46.1653 44.6875 46.6624ZM50.7812 28.8499H51.7188C51.7179 28.1042 51.4213 27.3893 50.8941 26.862C50.3668 26.3348 49.6519 26.0382 48.9062 26.0374V26.9749C49.4034 26.9754 49.8799 27.1732 50.2315 27.5247C50.583 27.8762 50.7807 28.3528 50.7812 28.8499Z" fill="#8BC16A"></path></svg>