<svg xmlns="http://www.w3.org/2000/svg" width="111" height="111" viewBox="0 0 111 111" fill="none"><circle opacity="0.07" cx="55.5" cy="55.5" r="55.5" fill="#76B947"></circle><path d="M63.6792 81.5308H46.3208C40.0785 81.5308 35 76.4282 35 70.1564V44.3744C35 38.1026 40.0785 33 46.3208 33H63.6792C69.9215 33 75 38.1026 75 44.3744V70.1564C75 76.4282 69.9215 81.5308 63.6792 81.5308ZM46.3208 36.7915C42.1592 36.7915 38.7736 40.1932 38.7736 44.3744V70.1564C38.7736 74.3376 42.1592 77.7393 46.3208 77.7393H63.6792C67.8408 77.7393 71.2264 74.3376 71.2264 70.1564V44.3744C71.2264 40.1932 67.8408 36.7915 63.6792 36.7915H46.3208ZM64.434 68.9136C64.434 64.0588 60.4889 60.109 55.6396 60.109H54.3604C49.5111 60.109 45.566 64.0588 45.566 68.9136C45.566 69.9607 46.4108 70.8094 47.4528 70.8094C48.4949 70.8094 49.3396 69.9607 49.3396 68.9136C49.3396 66.1494 51.592 63.9005 54.3604 63.9005H55.6396C58.4081 63.9005 60.6604 66.1494 60.6604 68.9136C60.6604 69.9607 61.5051 70.8094 62.5472 70.8094C63.5892 70.8094 64.434 69.9607 64.434 68.9136ZM55.1887 56.981C51.4433 56.981 48.3962 53.9195 48.3962 50.1564C48.3962 46.3933 51.4433 43.3318 55.1887 43.3318C58.9341 43.3318 61.9811 46.3933 61.9811 50.1564C61.9811 53.9195 58.9341 56.981 55.1887 56.981ZM55.1887 47.1232C53.5241 47.1232 52.1698 48.4839 52.1698 50.1564C52.1698 51.8289 53.5241 53.1896 55.1887 53.1896C56.8533 53.1896 58.2075 51.8289 58.2075 50.1564C58.2075 48.4839 56.8533 47.1232 55.1887 47.1232Z" fill="#76B947"></path></svg>