<svg xmlns="http://www.w3.org/2000/svg" width="111" height="111" viewBox="0 0 111 111" fill="none"><circle opacity="0.07" cx="55.5" cy="55.5" r="55.5" fill="#76B947"></circle><path d="M55.5294 58.9609C56.7429 58.9609 57.7266 57.9771 57.7266 56.7636C57.7266 55.5501 56.7429 54.5663 55.5294 54.5663C54.3158 54.5663 53.3321 55.5501 53.3321 56.7636C53.3321 57.9771 54.3158 58.9609 55.5294 58.9609Z" fill="#76B947"></path><path d="M64.9921 57.5546C60.3881 57.5546 56.6425 61.3002 56.6425 65.9042C56.6425 70.5082 60.3881 74.2538 64.9921 74.2538C69.596 74.2538 73.3417 70.5082 73.3417 65.9042C73.3417 61.3002 69.596 57.5546 64.9921 57.5546ZM64.9921 70.7382C62.3266 70.7382 60.1581 68.5696 60.1581 65.9042C60.1581 63.2387 62.3266 61.0702 64.9921 61.0702C67.6575 61.0702 69.826 63.2387 69.826 65.9042C69.826 68.5696 67.6575 70.7382 64.9921 70.7382Z" fill="#76B947"></path><path d="M48.9082 41.8222C49.879 41.8222 50.666 41.0353 50.666 40.0644C50.666 38.6591 51.8093 37.5156 53.2148 37.5156H57.7851C59.1905 37.5156 60.3339 38.6591 60.3339 40.0644C60.3339 41.0353 61.1209 41.8222 62.0917 41.8222C63.0625 41.8222 63.8495 41.0353 63.8495 40.0644C63.8495 36.7205 61.129 34 57.7851 34H53.2148C49.8708 34 47.1503 36.7205 47.1503 40.0644C47.1503 41.0353 47.9373 41.8222 48.9082 41.8222Z" fill="#76B947"></path><path d="M45.2168 57.5546C45.2168 56.5838 44.4298 55.7968 43.459 55.7968C42.4881 55.7968 41.7011 56.5838 41.7011 57.5546C41.7011 62.8371 45.9987 67.1347 51.2812 67.1347C52.252 67.1347 53.039 66.3477 53.039 65.3769C53.039 64.406 52.252 63.619 51.2812 63.619C47.9372 63.619 45.2168 60.8986 45.2168 57.5546Z" fill="#76B947"></path><path d="M67.453 45.25H43.5468C37.7313 45.25 33 49.9813 33 55.7968V68.453C33 74.2685 37.7313 78.9999 43.5468 78.9999H57.7851C58.7559 78.9999 59.5429 78.2129 59.5429 77.2421C59.5429 76.2712 58.7559 75.4842 57.7851 75.4842H43.5468C39.6698 75.4842 36.5156 72.33 36.5156 68.453V55.7968C36.5156 51.9198 39.6698 48.7656 43.5468 48.7656H67.453C71.33 48.7656 74.4842 51.9198 74.4842 55.7968V58.1698C74.4842 59.1407 75.2712 59.9277 76.242 59.9277C77.2129 59.9277 77.9999 59.1407 77.9999 58.1698V55.7968C77.9999 49.9813 73.2685 45.25 67.453 45.25Z" fill="#76B947"></path><path d="M75.0242 73.538C74.3377 72.8515 73.2247 72.8515 72.5383 73.538C71.8519 74.2246 71.8518 75.3376 72.5383 76.024L74.9992 78.4849C75.3424 78.8282 75.7923 78.9998 76.2422 78.9998C76.6921 78.9998 77.1419 78.8282 77.4851 78.485C78.1716 77.7985 78.1716 76.6855 77.4851 75.9991L75.0242 73.538Z" fill="#76B947"></path></svg>