<svg xmlns="http://www.w3.org/2000/svg" width="111" height="111" viewBox="0 0 111 111" fill="none"><circle opacity="0.07" cx="55.5" cy="55.5" r="55.5" fill="#76B947"></circle><path d="M62.8302 71.4408H46.8868C45.8447 71.4408 45 70.592 45 69.545C45 68.498 45.8447 67.6493 46.8868 67.6493H62.8302C63.8723 67.6493 64.717 68.498 64.717 69.545C64.717 70.592 63.8723 71.4408 62.8302 71.4408ZM64.717 62.2464C64.717 61.1994 63.8723 60.3507 62.8302 60.3507H59.1509C58.1089 60.3507 57.2642 61.1994 57.2642 62.2464C57.2642 63.2935 58.1089 64.1422 59.1509 64.1422H62.8302C63.8723 64.1422 64.717 63.2935 64.717 62.2464ZM75 71.1564V45.3744C75 39.1026 69.9215 34 63.6792 34H46.3208C40.0785 34 35 39.1026 35 45.3744V71.1564C35 77.4282 40.0785 82.5308 46.3208 82.5308H63.6792C69.9215 82.5308 75 77.4282 75 71.1564ZM63.6792 37.7915C67.8408 37.7915 71.2264 41.1932 71.2264 45.3744V71.1564C71.2264 75.3376 67.8408 78.7393 63.6792 78.7393H46.3208C42.1592 78.7393 38.7736 75.3376 38.7736 71.1564V45.3744C38.7736 41.1932 42.1592 37.7915 46.3208 37.7915H63.6792ZM65.1887 43.2891C65.1887 42.2421 64.344 41.3934 63.3019 41.3934C62.2598 41.3934 61.4151 42.2421 61.4151 43.2891C61.4151 44.8571 60.1455 46.1327 58.5849 46.1327H51.4151C49.8545 46.1327 48.5849 44.8571 48.5849 43.2891C48.5849 42.2421 47.7402 41.3934 46.6981 41.3934C45.656 41.3934 44.8113 42.2421 44.8113 43.2891C44.8113 46.9477 47.7738 49.9242 51.4151 49.9242H58.5849C62.2262 49.9242 65.1887 46.9477 65.1887 43.2891ZM52.1509 63.0069L55.7738 59.3354C56.5075 58.5919 56.5024 57.3917 55.7623 56.6545C55.0224 55.9174 53.8277 55.9225 53.094 56.6661L49.471 60.3375C49.4539 60.355 49.4324 60.3549 49.4152 60.3375L47.6605 58.5592C46.9268 57.8156 45.7322 57.8105 44.9922 58.5477C44.2522 59.2848 44.2471 60.4851 44.9807 61.2286L46.7354 63.0069C47.4577 63.739 48.4193 64.1422 49.4431 64.1422C50.4671 64.1422 51.4287 63.7391 52.1509 63.0069V63.0069Z" fill="#76B947"></path></svg>