<svg xmlns="http://www.w3.org/2000/svg" width="30" height="37" viewBox="0 0 30 37" fill="none"><path d="M20.8726 28.0806H8.91509C8.13354 28.0806 7.5 27.444 7.5 26.6588C7.5 25.8735 8.13354 25.237 8.91509 25.237H20.8726C21.6542 25.237 22.2877 25.8735 22.2877 26.6588C22.2877 27.444 21.6542 28.0806 20.8726 28.0806ZM22.2877 21.1848C22.2877 20.3996 21.6542 19.763 20.8726 19.763H18.1132C17.3317 19.763 16.6981 20.3996 16.6981 21.1848C16.6981 21.9701 17.3317 22.6066 18.1132 22.6066H20.8726C21.6542 22.6066 22.2877 21.9701 22.2877 21.1848ZM30 27.8673V8.53081C30 3.82692 26.1911 0 21.5094 0H8.49057C3.80887 0 0 3.82692 0 8.53081V27.8673C0 32.5712 3.80887 36.3981 8.49057 36.3981H21.5094C26.1911 36.3981 30 32.5712 30 27.8673ZM21.5094 2.8436C24.6306 2.8436 27.1698 5.39488 27.1698 8.53081V27.8673C27.1698 31.0032 24.6306 33.5545 21.5094 33.5545H8.49057C5.36943 33.5545 2.83019 31.0032 2.83019 27.8673V8.53081C2.83019 5.39488 5.36943 2.8436 8.49057 2.8436H21.5094ZM22.6415 6.96682C22.6415 6.18156 22.008 5.54502 21.2264 5.54502C20.4449 5.54502 19.8113 6.18156 19.8113 6.96682C19.8113 8.1428 18.8591 9.09953 17.6887 9.09953H12.3113C11.1409 9.09953 10.1887 8.1428 10.1887 6.96682C10.1887 6.18156 9.55514 5.54502 8.77358 5.54502C7.99203 5.54502 7.35849 6.18156 7.35849 6.96682C7.35849 9.71076 9.58033 11.9431 12.3113 11.9431H17.6887C20.4197 11.9431 22.6415 9.71076 22.6415 6.96682ZM12.8632 21.7552L15.5803 19.0016C16.1306 18.444 16.1268 17.5437 15.5717 16.9909C15.0168 16.4381 14.1208 16.4418 13.5705 16.9995L10.8533 19.7531C10.8404 19.7662 10.8243 19.7662 10.8114 19.7531L9.49535 18.4194C8.94509 17.8617 8.04913 17.8579 7.49413 18.4108C6.93913 18.9636 6.93531 19.8638 7.48549 20.4215L8.80153 21.7552C9.3433 22.3042 10.0645 22.6066 10.8323 22.6066C11.6003 22.6066 12.3215 22.3043 12.8632 21.7552V21.7552Z" fill="#9073EC"></path></svg>