<svg xmlns="http://www.w3.org/2000/svg" width="30" height="30" viewBox="0 0 30 30" fill="none"><path d="M15.0196 16.6406C15.8286 16.6406 16.4844 15.9847 16.4844 15.1757C16.4844 14.3667 15.8286 13.7109 15.0196 13.7109C14.2106 13.7109 13.5547 14.3667 13.5547 15.1757C13.5547 15.9847 14.2106 16.6406 15.0196 16.6406Z" fill="#9073EC"></path><path d="M21.3281 15.7031C18.2587 15.7031 15.7617 18.2002 15.7617 21.2695C15.7617 24.3388 18.2587 26.8358 21.3281 26.8358C24.3974 26.8358 26.8944 24.3388 26.8944 21.2695C26.8944 18.2002 24.3974 15.7031 21.3281 15.7031ZM21.3281 24.4921C19.5511 24.4921 18.1054 23.0464 18.1054 21.2695C18.1054 19.4925 19.5511 18.0468 21.3281 18.0468C23.105 18.0468 24.5507 19.4925 24.5507 21.2695C24.5507 23.0464 23.105 24.4921 21.3281 24.4921Z" fill="#9073EC"></path><path d="M10.6054 5.21483C11.2527 5.21483 11.7773 4.69018 11.7773 4.04296C11.7773 3.10604 12.5395 2.34374 13.4765 2.34374H16.5234C17.4604 2.34374 18.2226 3.10604 18.2226 4.04296C18.2226 4.69018 18.7472 5.21483 19.3945 5.21483C20.0417 5.21483 20.5663 4.69018 20.5663 4.04296C20.5663 1.81365 18.7527 0 16.5234 0H13.4765C11.2472 0 9.43356 1.81365 9.43356 4.04296C9.43356 4.69018 9.95821 5.21483 10.6054 5.21483Z" fill="#9073EC"></path><path d="M8.1445 15.7031C8.1445 15.0558 7.61986 14.5312 6.97263 14.5312C6.32541 14.5312 5.80076 15.0558 5.80076 15.7031C5.80076 19.2247 8.66581 22.0898 12.1875 22.0898C12.8347 22.0898 13.3593 21.5651 13.3593 20.9179C13.3593 20.2707 12.8347 19.746 12.1875 19.746C9.95815 19.746 8.1445 17.9324 8.1445 15.7031Z" fill="#9073EC"></path><path d="M22.9687 7.49998H7.03123C3.15421 7.49998 0 10.6542 0 14.5312V22.9687C0 26.8457 3.15421 29.9999 7.03123 29.9999H16.5234C17.1706 29.9999 17.6953 29.4753 17.6953 28.828C17.6953 28.1808 17.1706 27.6562 16.5234 27.6562H7.03123C4.44655 27.6562 2.34374 25.5534 2.34374 22.9687V14.5312C2.34374 11.9465 4.44655 9.84372 7.03123 9.84372H22.9687C25.5534 9.84372 27.6562 11.9465 27.6562 14.5312V16.1132C27.6562 16.7605 28.1808 17.2851 28.828 17.2851C29.4753 17.2851 29.9999 16.7605 29.9999 16.1132V14.5312C29.9999 10.6542 26.8457 7.49998 22.9687 7.49998Z" fill="#9073EC"></path><path d="M28.0161 26.3587C27.5585 25.901 26.8165 25.901 26.3589 26.3587C25.9012 26.8164 25.9012 27.5584 26.3589 28.016L27.9995 29.6566C28.2283 29.8855 28.5282 29.9999 28.8281 29.9999C29.1281 29.9999 29.4279 29.8855 29.6567 29.6567C30.1144 29.199 30.1144 28.457 29.6567 27.9994L28.0161 26.3587Z" fill="#9073EC"></path></svg>