<svg xmlns="http://www.w3.org/2000/svg" width="30" height="37" viewBox="0 0 30 37" fill="none"><path d="M21.5094 36.3981H8.49057C3.80887 36.3981 0 32.5712 0 27.8673V8.5308C0 3.82692 3.80887 0 8.49057 0H21.5094C26.1911 0 30 3.82692 30 8.5308V27.8673C30 32.5712 26.1911 36.3981 21.5094 36.3981ZM8.49057 2.8436C5.36943 2.8436 2.83019 5.39488 2.83019 8.5308V27.8673C2.83019 31.0032 5.36943 33.5545 8.49057 33.5545H21.5094C24.6306 33.5545 27.1698 31.0032 27.1698 27.8673V8.5308C27.1698 5.39488 24.6306 2.8436 21.5094 2.8436H8.49057ZM22.0755 26.9352C22.0755 23.2941 19.1166 20.3318 15.4797 20.3318H14.5203C10.8833 20.3318 7.92453 23.2941 7.92453 26.9352C7.92453 27.7205 8.55807 28.357 9.33962 28.357C10.1212 28.357 10.7547 27.7205 10.7547 26.9352C10.7547 24.862 12.444 23.1754 14.5203 23.1754H15.4797C17.5561 23.1754 19.2453 24.862 19.2453 26.9352C19.2453 27.7205 19.8788 28.357 20.6604 28.357C21.4419 28.357 22.0755 27.7205 22.0755 26.9352ZM15.1415 17.9858C12.3325 17.9858 10.0472 15.6896 10.0472 12.8673C10.0472 10.045 12.3325 7.74881 15.1415 7.74881C17.9505 7.74881 20.2358 10.045 20.2358 12.8673C20.2358 15.6896 17.9505 17.9858 15.1415 17.9858ZM15.1415 10.5924C13.893 10.5924 12.8774 11.6129 12.8774 12.8673C12.8774 14.1217 13.893 15.1422 15.1415 15.1422C16.39 15.1422 17.4057 14.1217 17.4057 12.8673C17.4057 11.6129 16.39 10.5924 15.1415 10.5924Z" fill="#9073EC"></path></svg>